# xmcd
#
# Track frame offsets:
#	180
#	15287
#	32953
#	50297
#	64933
#	80644
#	95138
#	105195
#	122325
#	134684
#
# Disc length: 1963 seconds
#
# Revision: 0
# Processed by: cddbd v1.4PL0 Copyright (c) Steve Scherf et al.
# Submitted via: EasyCDDAExtractor 4.6.0.1
#
DISCID=7d07a90a
DTITLE=Danny Hooper - John Deer Tractor Keys
DYEAR=2000
DGENRE=Country
TTITLE0=Country Songwriter
TTITLE1=John Deer Tractor Keys
TTITLE2=Before the Rodeo
TTITLE3=All the Hurtin' Songs
TTITLE4=Cheating Romance
TTITLE5=Whats Her Name
TTITLE6=Eight Seconds At a Time
TTITLE7=The Last Bull Ride
TTITLE8=I Can't Even See the Shore
TTITLE9=One of the Lucky Ones
EXTD=
EXTT0=
EXTT1=
EXTT2=
EXTT3=
EXTT4=
EXTT5=
EXTT6=
EXTT7=
EXTT8=
EXTT9=
PLAYORDER=
